{"title":"Zakhmee (1975) 2CD DVDRip Xvid Mp3 Eng Subs [RRG DADA] ","uid":8459212,"size":1528930329,"categoryP":"video","categoryS":"movies","magnet":"?xt=urn:btih:98b0123da57aca13ccae8cf9484f7e81c0e5dba9&amp;dn=Zakhmee+%281975%29+2CD+DVDRip+Xvid+Mp3+Eng+Subs+%5BRRG+DADA%5D+&amp;tr=udp%3A%2F%2Ftracker.openbittorrent.com%3A80&amp;tr=udp%3A%2F%2Fopen.demonii.com%3A1337&amp;tr=udp%3A%2F%2Ftracker.coppersurfer.tk%3A6969&amp;tr=udp%3A%2F%2Fexodus.desync.com%3A6969","seeders":0,"leechers":0,"uploader":"Bclassics","files":13,"time":1368190934,"description":"\nClick To Enlarge \n\n\n-: Cover :-\n\n\n\n\n    &lt;a href=&quot;\thttp://desibbrg.org/images/03650864229765805859.jpg&quot; rel=&quot;nofollow&quot; target=&quot;_NEW&quot;&gt;\thttp://desibbrg.org/images/03650864229765805859.jpg&lt;/a&gt;\n\n-: Screens :-\n\n\n    &lt;a href=&quot;\thttp://desibbrg.org/images/36594150930563961298.jpg&quot; rel=&quot;nofollow&quot; target=&quot;_NEW&quot;&gt;\thttp://desibbrg.org/images/36594150930563961298.jpg&lt;/a&gt;\n\n    &lt;a href=&quot;\thttp://desibbrg.org/images/58832158635696714494.jpg&quot; rel=&quot;nofollow&quot; target=&quot;_NEW&quot;&gt;\thttp://desibbrg.org/images/58832158635696714494.jpg&lt;/a&gt;\n\n    &lt;a href=&quot;\thttp://desibbrg.org/images/78367180375367924436.jpg&quot; rel=&quot;nofollow&quot; target=&quot;_NEW&quot;&gt;\thttp://desibbrg.org/images/78367180375367924436.jpg&lt;/a&gt;\n\n    &lt;a href=&quot;\thttp://desibbrg.org/images/24534253234474873492.jpg&quot; rel=&quot;nofollow&quot; target=&quot;_NEW&quot;&gt;\thttp://desibbrg.org/images/24534253234474873492.jpg&lt;/a&gt;\n\n    &lt;a href=&quot;\thttp://desibbrg.org/images/46023059131808222815.jpg&quot; rel=&quot;nofollow&quot; target=&quot;_NEW&quot;&gt;\thttp://desibbrg.org/images/46023059131808222815.jpg&lt;/a&gt;\n\n    &lt;a href=&quot;\thttp://desibbrg.org/images/70776469384166504912.jpg&quot; rel=&quot;nofollow&quot; target=&quot;_NEW&quot;&gt;\thttp://desibbrg.org/images/70776469384166504912.jpg&lt;/a&gt;\n\n    &lt;a href=&quot;\thttp://desibbrg.org/images/39476895770333677168.jpg&quot; rel=&quot;nofollow&quot; target=&quot;_NEW&quot;&gt;\thttp://desibbrg.org/images/39476895770333677168.jpg&lt;/a&gt;\n\n    &lt;a href=&quot;\thttp://desibbrg.org/images/21486712650385183518.jpg&quot; rel=&quot;nofollow&quot; target=&quot;_NEW&quot;&gt;\thttp://desibbrg.org/images/21486712650385183518.jpg&lt;/a&gt;\n\n    &lt;a href=&quot;\thttp://desibbrg.org/images/87612718199675057805.jpg&quot; rel=&quot;nofollow&quot; target=&quot;_NEW&quot;&gt;\thttp://desibbrg.org/images/87612718199675057805.jpg&lt;/a&gt;\n\n\n\n-: Info :-\n\n\nFormat                           : AVI\nFormat/Info                      : Audio Video Interleave\nFile size                        : 1.37 GiB\nDuration                         : 2h 19mn\nOverall bit rate                 : 1 405 Kbps\nWriting application              : VirtualDubMod 1.5.4.1 (build 2178/release)\nWriting library                  : VirtualDubMod build 2178/release\n\nVideo\nID                               : 0\nFormat                           : MPEG-4 Visual\nFormat profile                   : Advanced Simple@L5\nFormat settings, BVOP            : Yes\nFormat settings, QPel            : No\nFormat settings, GMC             : No warppoints\nFormat settings, Matrix          : Custom\nCodec ID                         : XVID\nCodec ID/Hint                    : XviD\nDuration                         : 2h 19mn\nBit rate                         : 949 Kbps\nWidth                            : 640 pixels\nHeight                           : 480 pixels\nDisplay aspect ratio             : 4:3\nFrame rate                       : 29.970 fps\nColor space                      : YUV\nChroma subsampling               : 4:2:0\nBit depth                        : 8 bits\nScan type                        : Progressive\nBits/(Pixel*Frame)               : 0.103\nStream size                      : 946 MiB (68%)\nWriting library                  : XviD 64\n\nAudio\nID                               : 1\nFormat                           : AC-3\nFormat/Info                      : Audio Coding 3\nMode extension                   : CM (complete main)\nCodec ID                         : 2000\nDuration                         : 2h 19mn\nBit rate mode                    : Constant\nBit rate                         : 448 Kbps\nChannel(s)                       : 6 channels\nChannel positions                : Front: L C R, Side: L R, LFE\nSampling rate                    : 48.0 KHz\nBit depth                        : 16 bits\nStream size                      : 447 MiB (32%)\nAlignment                        : Aligned on interleaves\nInterleave, duration             : 96 ms (2.88 video frames)\nInterleave, preload duration     : 96 ms\n\n\nRipper - DDR\n\n\n &lt;a href=&quot;\nhttp://www.imdb.com/title/tt0073923&quot; rel=&quot;nofollow&quot; target=&quot;_NEW&quot;&gt;\nhttp://www.imdb.com/title/tt0073923&lt;/a&gt;\n\nDirected by\nRaja Thakur\t \t\n \nWriting credits\n(in alphabetical order)\nMadan Joshi\t \tdialogue\nHumayun Mirza\t \tscreenplay (as Himanyun Mirza)\nHumayun Mirza\t \tstory (as Himanyun Mirza)\n\nCast (in credits order) complete, awaiting verification\n\tSunil Dutt\t... \tAnand\n\tAsha Parekh\t... \tAsha\n\tRakesh Roshan\t... \tAmar (as Raakesh Roshan)\n\tReena Roy\t... \tNisha Ganguly\n\tTariq\t... \tPawan\n\tHelen\t... \tSheila\n\tJohnny Walker\t... \tJohny (as Johny Walker)\n\tImtiaz\t... \tTiger\n\tYunus Parvez\t... \tDilawar\n\tJankidas\t... \tJankidas\n\tHabib\t\t\n\tMadhup Sharma\t\t\n\tShyam Kumar\t\t\n\tD.S. Rana\t\t\n\tAbhimanyu Sharma\t\t\n\tBabul\t\t\n\tGulam Hussain\t\t(as Ghulam Husain)\n\tKhursheed Khan\t\t(as Khurshid Khan)\n\tJerry Raja\t\t(as Jery Raja)\n\tBabubhai\t\t\n\tNavin Kumar\t\t\n\tSujata\t\t\n\tShahzad Malik\t\t(as Shahzada Malik)\n\tVikrant\t\t\n\tVijayakanth\t\t(as Vijay Kant)\n\tShahid Bijnori\t\t\n\tB. Chandrashekhar\t\t\n\tKamal Kapoor\t... \tChief\n\tIftekhar\t... \tJudge Ashok Ganguly\n\tBaby Pinky\t... \tTina (child artist)\n\tPiloo J. Wadia\t... \tShirin\n\tUsha Thakur\t\t\n\tRuhi Khan\t\t(as Roohi)\n\tAgha\t... \tRustam\n\n\nOn the night of his marriage to Asha (Asha Parekh), Anand (Sunil Dutt) is arrested for allegedly murdering his business partner, and held in prison until his trial takes place. Anand refuses to say anything in his favor, thus leading his lawyer to conclude that Anand did commit this homicide. Refusing to believe that their brother could murder, his brothers, Amar and Pawan (Rakesh Roshan and Tariq respectively) kidnap Judge Ganguly's (Iftekhar) only daughter, Nisha (Reena Roy), in order to force the judge to find Anand not guilty, with disasterous results\n","torrent":{"xt":"urn:btih:98b0123da57aca13ccae8cf9484f7e81c0e5dba9","amp;dn":"Zakhmee+%281975%29+2CD+DVDRip+Xvid+Mp3+Eng+Subs+%5BRRG+DADA%5D+","amp;tr":["udp%3A%2F%2Ftracker.openbittorrent.com%3A80","udp%3A%2F%2Fopen.demonii.com%3A1337","udp%3A%2F%2Ftracker.coppersurfer.tk%3A6969","udp%3A%2F%2Fexodus.desync.com%3A6969"],"infoHash":"98b0123da57aca13ccae8cf9484f7e81c0e5dba9","infoHashBuffer":{"type":"Buffer","data":[152,176,18,61,165,122,202,19,204,174,140,249,72,79,126,129,192,229,219,169]},"announce":[],"urlList":[]}}